<?xml version="1.0" encoding="UTF-8" standalone="no"?>
<!-- Created with Inkscape (http://www.inkscape.org/) -->

<svg
   xmlns:dc="http://purl.org/dc/elements/1.1/"
   xmlns:cc="http://creativecommons.org/ns#"
   xmlns:rdf="http://www.w3.org/1999/02/22-rdf-syntax-ns#"
   xmlns:svg="http://www.w3.org/2000/svg"
   xmlns="http://www.w3.org/2000/svg"
   xmlns:sodipodi="http://sodipodi.sourceforge.net/DTD/sodipodi-0.dtd"
   xmlns:inkscape="http://www.inkscape.org/namespaces/inkscape"
   version="1.1"
   id="svg64"
   width="614.40002"
   height="614.40002"
   viewBox="0 0 614.40002 614.40002"
   sodipodi:docname="logo-s.svg"
   inkscape:version="0.92.3 (d244b95, 2018-08-02)">
  <metadata
     id="metadata70">
    <rdf:RDF>
      <cc:Work
         rdf:about="">
        <dc:format>image/svg+xml</dc:format>
        <dc:type
           rdf:resource="http://purl.org/dc/dcmitype/StillImage" />
        <dc:title></dc:title>
      </cc:Work>
    </rdf:RDF>
  </metadata>
  <defs
     id="defs68" />
  <sodipodi:namedview
     pagecolor="#ffffff"
     bordercolor="#666666"
     borderopacity="1"
     objecttolerance="10"
     gridtolerance="10"
     guidetolerance="10"
     inkscape:pageopacity="0"
     inkscape:pageshadow="2"
     inkscape:window-width="1920"
     inkscape:window-height="1031"
     id="namedview66"
     showgrid="false"
     inkscape:zoom="1.3785807"
     inkscape:cx="307.20001"
     inkscape:cy="307.20001"
     inkscape:window-x="0"
     inkscape:window-y="25"
     inkscape:window-maximized="1"
     inkscape:current-layer="svg64" />
  <!-- <path
     inkscape:connector-curvature="0"
     id="path84"
     d="M 0,307.20001 V 0 H 307.20001 614.40002 V 307.20001 614.40002 H 307.20001 0 Z"
     style="fill:#fefefe;stroke-width:0.32000002" /> -->
  <path
     inkscape:connector-curvature="0"
     id="path82"
     d="m 391.04001,469.2405 c -21.5704,-1.90554 -38.21843,-8.10938 -52.89376,-19.71066 -4.35587,-3.44346 -11.87373,-11.06589 -15.39744,-15.61165 -18.82814,-24.28909 -29.29006,-57.03245 -32.66638,-102.23818 -1.45434,-19.47222 -1.19072,-45.7894 0.65231,-65.12 0.90186,-9.45919 2.6933,-21.8976 4.15371,-28.84013 0.25936,-1.23294 0.47156,-2.41022 0.47156,-2.61618 0,-0.72796 -14.55065,14.14189 -24.83173,25.37647 -45.34905,49.55485 -100.14177,121.46154 -150.022,196.87984 l -7.56619,11.44001 H 107.35005 101.76 V 302.72001 136.64 h 19.19954 19.19953 l 0.0805,108.8217 0.0805,108.8217 4.47981,-6.50169 c 23.93901,-34.74352 50.73234,-69.09718 75.82578,-97.2217 33.06017,-37.05357 69.4759,-69.45061 98.36392,-87.50888 21.94925,-13.72077 45.73124,-22.89989 66.48842,-25.66252 5.23968,-0.69736 22.51392,-0.80647 27.64208,-0.1746 9.15815,1.12844 18.29277,3.15894 24.28317,5.39781 4.26867,1.59539 12.59891,5.81487 16.99683,8.60933 26.8442,17.057 44.86628,49.85835 52.31722,95.22068 4.13549,25.17747 5.32051,57.18584 3.18531,86.03818 -3.28899,44.44323 -14.2696,78.36685 -32.9927,101.92804 -3.30669,4.16112 -11.00342,11.94473 -14.82982,14.99715 -9.31393,7.43005 -22.06689,13.76214 -33.54954,16.65805 -9.37296,2.36381 -15.53488,3.09901 -26.93047,3.21312 -5.016,0.0502 -9.768,0.0341 -10.56,-0.0359 z m 14.56,-34.37293 c 36.53703,-3.44522 56.50621,-37.40711 60.95524,-103.66756 1.3999,-20.84931 1.01443,-47.75417 -0.96967,-67.68 -4.65945,-46.79349 -18.22736,-75.65453 -40.91193,-87.02595 -12.33837,-6.18505 -29.14938,-7.25538 -42.69213,-2.71814 -22.02157,7.3779 -36.65287,29.35653 -43.87277,65.90409 -5.53024,27.99429 -6.87533,69.3883 -3.36912,103.68 5.90525,57.75476 25.72333,88.30711 59.34038,91.48154 4.18064,0.39478 7.52893,0.40234 11.52,0.0259 z"
     style="fill:#708aa2;stroke-width:0.32000002" />
  <path
     inkscape:connector-curvature="0"
     id="path80"
     d="m 393.12001,469.24994 c -5.05337,-0.38752 -9.47709,-0.90653 -13.44,-1.5769 -48.36643,-8.18147 -78.92477,-49.20205 -87.65834,-117.66996 -1.82333,-14.29427 -2.42449,-23.73785 -2.64325,-41.52307 -0.33372,-27.13074 1.33035,-48.65382 5.35486,-69.25993 0.51345,-2.62895 0.88299,-4.83048 0.8212,-4.89227 -0.30173,-0.30173 -20.27738,20.7134 -30.94204,32.5522 -43.48262,48.26986 -98.68934,121.27584 -145.37584,192.24663 l -6.36341,9.67338 H 107.3166 101.76 V 302.72001 136.64 h 19.2 19.2 v 108.99377 108.99376 l 5.16908,-7.47376 c 41.7377,-60.34689 86.12237,-112.22309 126.1919,-147.49138 37.74847,-33.22534 64.47305,-49.40595 96.95903,-58.70461 18.92512,-5.41705 41.5584,-5.65708 61.10244,-0.64803 5.77939,1.48124 9.62544,2.93788 15.69756,5.94524 15.42231,7.63826 27.02721,18.02006 37.18401,33.26502 13.94432,20.9299 22.94313,49.63828 26.48073,84.48 1.57571,15.51881 2.25219,41.89248 1.4816,57.76 -1.59366,32.81511 -6.45142,58.30007 -15.4015,80.8 -2.19501,5.51808 -7.51216,16.09572 -10.37533,20.64 -9.70538,15.40394 -20.46243,26.08455 -34.13693,33.89434 -10.77446,6.15351 -22.86986,9.94211 -36.91258,11.56205 -4.01459,0.46314 -17.19814,0.84518 -20.48,0.59354 z m 17.07325,-34.81501 c 9.77261,-1.81581 17.11728,-5.21076 24.42746,-11.29117 17.11686,-14.23744 27.90842,-43.15799 31.44262,-84.26375 1.77456,-20.63981 1.89837,-47.15102 0.316,-67.68 -3.67235,-47.6439 -15.688,-77.91986 -36.42825,-91.78867 -7.98026,-5.33632 -16.7769,-8.0263 -27.55108,-8.42504 -16.21411,-0.60006 -28.98441,4.14949 -39.72141,14.77323 -8.66569,8.5743 -14.74281,19.22372 -19.76339,34.63296 -6.81139,20.90555 -10.10579,47.88857 -10.11011,82.80752 -0.004,35.87143 3.48192,63.11517 10.83136,84.64 4.8711,14.26628 10.70502,24.22068 19.04176,32.49079 8.41491,8.34771 18.14176,13.03933 30.16858,14.55142 3.29888,0.41475 14.22301,0.13306 17.34646,-0.44729 z"
     style="fill:#4e6e8c;stroke-width:0.32000002" />
  <path
     inkscape:connector-curvature="0"
     id="path78"
     d="m 391.86388,469.08363 c -30.79414,-1.96176 -54.84569,-15.2089 -72.49459,-39.92867 -11.52865,-16.14749 -20.32379,-38.86471 -25.10133,-64.83495 -6.86248,-37.30374 -6.66238,-88.23338 0.49079,-124.91476 0.52713,-2.70311 0.89847,-4.9747 0.82519,-5.04798 -0.0733,-0.0733 -3.37996,3.17651 -7.3482,7.22173 -36.14302,36.84416 -79.10829,89.49602 -123.26967,151.06101 -16.21522,22.60551 -24.58729,34.74298 -41.99177,60.87799 l -10.1743,15.27795 -5.52,0.003 -5.52,0.003 v -166.08 -166.08001 h 19.2 19.2 v 109.02195 109.02196 l 1.54189,-2.22195 c 18.85991,-27.18058 31.41972,-44.19419 47.64065,-64.53675 30.2391,-37.92262 59.08095,-68.42976 88.90176,-94.03481 32.91972,-28.26586 58.47622,-43.43035 88.06362,-52.25439 18.447,-5.50157 38.48515,-6.39492 57.69209,-2.57205 8.46032,1.6839 14.13207,3.61762 21.50768,7.33277 17.49546,8.8126 30.36657,21.30498 41.08055,39.87179 12.03293,20.85248 19.69638,48.47115 22.6777,81.72915 0.95184,10.61825 1.17683,15.52687 1.3568,29.6 0.3039,23.76179 -0.88845,42.328 -3.93549,61.28 -9.77655,60.80839 -37.96736,98.13684 -81.40724,107.79415 -10.30067,2.29002 -22.02336,3.13526 -33.41613,2.40947 z m 15.50452,-34.22054 c 11.69325,-1.45287 21.42441,-6.00394 29.67715,-13.8794 8.4743,-8.08694 14.93392,-19.1414 19.92826,-34.10368 7.59232,-22.74544 10.9376,-51.49258 10.44537,-89.76 -0.18646,-14.49478 -0.39558,-19.16052 -1.35539,-30.24 -3.09395,-35.71485 -11.73709,-62.39933 -25.19706,-77.79225 -8.0088,-9.15893 -17.35376,-14.68927 -28.9942,-17.15878 -3.70676,-0.78638 -4.64,-0.85622 -11.55252,-0.86455 -9.62633,-0.0116 -14.32387,0.81702 -21.76,3.83836 -9.64339,3.91818 -18.75901,12.04463 -25.40185,22.64543 -10.74935,17.15407 -16.95924,41.53284 -19.61687,77.01179 -0.71235,9.50971 -0.82634,45.33782 -0.17357,54.56 2.32103,32.79191 6.97949,54.20922 15.59111,71.68 4.34422,8.81328 8.23536,14.3082 14.28595,20.17399 7.20387,6.98384 15.76595,11.43888 25.45043,13.24246 1.90563,0.35488 3.9688,0.69834 4.5848,0.7632 2.56775,0.27037 11.57389,0.19587 14.08839,-0.11657 z"
     style="fill:#264d72;stroke-width:0.32000002" />
  <path
     inkscape:connector-curvature="0"
     id="path76"
     d="m 395.84001,469.2221 c -26.92339,-0.86749 -49.03328,-10.10804 -66.00582,-27.58631 -10.42601,-10.73664 -18.82363,-24.20298 -25.16593,-40.35578 -8.11522,-20.66813 -12.5174,-42.61581 -14.63402,-72.96 -0.68254,-9.78496 -0.78517,-38.54173 -0.17074,-47.84 1.15369,-17.45879 2.83157,-31.04107 5.32886,-43.13653 l 0.71978,-3.48621 -3.98611,3.95137 C 244.15223,285.16597 176.5565,371.73044 119.36,458.80014 l -6.56,9.98624 -5.52,0.007 -5.52,0.007 v -166.08 -166.08001 h 19.19954 19.19954 l 0.0805,108.97419 0.0805,108.97417 4.14124,-6.01417 c 40.10294,-58.24001 83.54874,-109.53056 122.749,-144.91283 36.35494,-32.81408 63.72459,-50.38728 93.8778,-60.27603 13.22877,-4.33837 21.18605,-5.87042 33.24,-6.39982 18.78177,-0.82488 36.32564,2.25527 49.63818,8.71492 10.73379,5.20835 18.51556,10.7959 26.4338,18.98029 18.18665,18.79798 30.23564,46.146 36.15465,82.06152 4.47831,27.17363 5.41837,64.53065 2.38304,94.69796 -4.47459,44.47178 -17.50147,78.2776 -38.51245,99.9432 -14.67555,15.13277 -31.87219,23.69325 -53.81942,26.79133 -3.75136,0.52954 -16.15677,1.37412 -17.56583,1.19591 -0.264,-0.0334 -1.704,-0.10013 -3.2,-0.14835 z m 15.79837,-34.95393 c 10.06512,-2.0431 18.25139,-6.34726 25.57827,-13.44848 6.03716,-5.8512 9.95504,-11.42089 14.30759,-20.33968 7.96397,-16.31897 12.82432,-37.70781 15.0159,-66.08 1.50535,-19.48828 1.21994,-51.2289 -0.62867,-69.92 -3.24019,-32.76107 -10.58602,-56.5085 -22.32134,-72.16 -5.26516,-7.02216 -12.81277,-13.28428 -20.07012,-16.65179 -6.78633,-3.14896 -12.75795,-4.44464 -21.6,-4.68663 -11.09299,-0.3036 -18.46272,1.21421 -26.88,5.53597 -25.25872,12.96884 -39.04192,47.56697 -41.92643,105.24245 -0.43437,8.68526 -0.4336,33.91964 0,42.56 3.4696,68.93088 22.4369,104.99501 58.06534,110.40468 4.59994,0.69843 16.02439,0.44352 20.45815,-0.45652 z"
     style="fill:#05335d;stroke-width:0.32000002" />
</svg>
